<?xml version="1.0" encoding="UTF-8" standalone="no"?>
<!-- Created with Inkscape (http://www.inkscape.org/) -->

<svg
   width="300"
   height="400"
   viewBox="0 0 79.374998 105.83334"
   version="1.1"
   id="svg5"
   sodipodi:docname="banner-brinde.svg"
   inkscape:version="1.1 (c68e22c387, 2021-05-23)"
   xmlns:inkscape="http://www.inkscape.org/namespaces/inkscape"
   xmlns:sodipodi="http://sodipodi.sourceforge.net/DTD/sodipodi-0.dtd"
   xmlns="http://www.w3.org/2000/svg"
   xmlns:svg="http://www.w3.org/2000/svg">
  <sodipodi:namedview
     id="namedview7"
     pagecolor="#ffffff"
     bordercolor="#666666"
     borderopacity="1.0"
     inkscape:pageshadow="2"
     inkscape:pageopacity="0.0"
     inkscape:pagecheckerboard="0"
     inkscape:document-units="px"
     showgrid="false"
     units="px"
     inkscape:zoom="0.92648709"
     inkscape:cx="148.41005"
     inkscape:cy="205.61538"
     inkscape:window-width="1366"
     inkscape:window-height="705"
     inkscape:window-x="-8"
     inkscape:window-y="-8"
     inkscape:window-maximized="1"
     inkscape:current-layer="layer1" />
  <defs
     id="defs2">
    <rect
       x="18.348879"
       y="143.553"
       width="283.86796"
       height="209.3931"
       id="rect2923" />
    <rect
       x="38.923851"
       y="23.659595"
       width="431.21521"
       height="128.98296"
       id="rect2779" />
    <rect
       x="38.923851"
       y="23.659596"
       width="431.21522"
       height="128.98296"
       id="rect2779-2" />
  </defs>
  <g
     inkscape:label="Camada 1"
     inkscape:groupmode="layer"
     id="layer1">
    <g
       id="g896"
       transform="translate(12.546301,0.72767493)">
      <g
         inkscape:label="Camada 1"
         id="layer1-7"
         style="display:inline;opacity:1">
        <text
           xml:space="preserve"
           transform="scale(0.26458333)"
           id="text2777"
           style="font-style:normal;font-weight:normal;font-size:40px;line-height:1.25;font-family:sans-serif;white-space:pre;shape-inside:url(#rect2779);fill:#000000;fill-opacity:1;stroke:none" />
      </g>
      <g
         id="layer2"
         inkscape:label="Camada 2"
         style="display:inline;opacity:1">
        <ellipse
           style="opacity:0.414634;fill:#96d2f9;fill-opacity:1;stroke:none;stroke-width:0.27702;stroke-opacity:0"
           id="path45449"
           cx="26.881716"
           cy="24.104517"
           rx="17.865471"
           ry="19.134026" />
        <ellipse
           style="opacity:1;fill:#ffffff;fill-opacity:1;stroke:none;stroke-width:0.27702;stroke-opacity:0"
           id="path47033"
           cx="26.062439"
           cy="23.417385"
           rx="3.937804"
           ry="2.2728262" />
        <path
           style="opacity:1;fill:#ffe500;fill-opacity:1;stroke:none;stroke-width:0.27702px;stroke-linecap:butt;stroke-linejoin:miter;stroke-opacity:1"
           d="m 24.714619,26.483056 c 0,0 0.281405,3.745635 -0.264282,5.497067 -0.863863,2.772653 -4.598508,7.3999 -4.598508,7.3999 1.554908,3.480525 11.258417,2.008544 11.258417,2.008544 l 8.245602,-5.761351 c 0,0 -3.512462,-3.37804 -5.215836,-5.199201 -1.608961,-1.720219 -4.562601,-5.372083 -4.562601,-5.372083 z"
           id="path29586"
           sodipodi:nodetypes="cssccscc" />
        <path
           id="path40761"
           style="opacity:1;fill:#ff0000;fill-opacity:1;stroke:none;stroke-width:0.27702px;stroke-linecap:butt;stroke-linejoin:miter;stroke-opacity:1"
           d="M 26.778162,3.585671 C 26.609293,3.583901 26.440094,3.584121 26.270111,3.586751 16.025487,3.7451708 7.2874708,14.122814 7.4332498,24.367625 7.6452695,39.267393 20.589025,43.50369 20.589025,43.50369 c 0,0 -2.321962,1.381485 -2.840545,2.541341 -0.305107,0.682398 -0.137868,1.486398 0.299204,2.092805 0.460714,0.639208 1.158052,0.834134 1.943472,0.89707 2.466268,0.197616 2.915294,-1.613817 5.381886,-1.420271 2.213737,0.173706 5.232066,1.952087 8.067682,3.005022 3.261923,1.211238 4.595399,1.77496 6.738312,1.651305 3.459821,-0.199649 7.458749,-1.240357 9.114047,-3.833922 0.509408,-0.79813 0.567255,-2.082433 0,-2.840545 -0.529028,-0.707036 -1.810894,-1.243423 -2.541322,-0.747197 -1.822421,1.238083 -3.874445,2.660069 -6.446659,2.703656 -2.962888,0.0502 -4.981607,-1.087517 -9.550179,-3.227399 0,0 14.851712,-5.073455 14.950445,-18.911528 C 45.797504,12.496326 37.417004,3.6970264 26.778162,3.5856693 Z m -0.26241,4.6471295 A 14.531459,15.811479 0 0 1 41.047431,24.044078 14.531459,15.811479 0 0 1 26.515752,39.855897 14.531459,15.811479 0 0 1 11.984612,24.044078 14.531459,15.811479 0 0 1 26.515752,8.2328005 Z" />
        <path
           style="opacity:1;fill:#ffc600;fill-opacity:1;stroke:none;stroke-width:0.27702px;stroke-linecap:butt;stroke-linejoin:miter;stroke-opacity:1"
           d="m 21.966086,5.1819173 c 0,0 -1.720691,-0.4862491 -2.695679,-0.2642818 -1.99392,0.4539389 -3.324848,2.0559257 -4.915647,3.4620956 -0.532797,0.4709618 -1.707772,1.4817192 -2.378539,1.7178329 -2.6179797,0.921544 -5.5783643,1.546856 -6.580621,3.964232 -0.7684869,1.853539 0.5689339,4.133052 2.0878266,5.444212 1.3618077,1.17556 3.5731444,1.139244 5.3384964,0.792846 1.085228,-0.212944 1.973379,-1.022725 2.854248,-1.691405 0.913144,-0.69318 2.484252,-2.37854 2.484252,-2.37854 z"
           id="path37095"
           sodipodi:nodetypes="cssssssscc" />
        <path
           style="opacity:1;fill:#ffc600;fill-opacity:1;stroke:none;stroke-width:0.27702px;stroke-linecap:butt;stroke-linejoin:miter;stroke-opacity:1"
           d="m 27.35744,4.7590661 c 0,0 3.759374,0.6787684 5.76135,1.1628412 2.719635,0.6576011 5.8426,1.0455375 8.13989,2.6428212 1.43504,0.9977658 2.679621,1.8495645 3.118513,3.5413795 0.531824,2.050064 0.516841,5.186396 -0.951409,6.712766 -1.291313,1.342419 -3.681117,1.418923 -5.49706,1.004272 -1.081025,-0.24684 -1.815399,-1.275493 -2.688569,-1.958956 -1.832351,-1.434254 -5.345606,-4.489527 -5.345606,-4.489527 z"
           id="path37556"
           sodipodi:nodetypes="csssssscc" />
        <path
           style="opacity:1;fill:#ffffff;stroke:none;stroke-width:0.27702px;stroke-linecap:butt;stroke-linejoin:miter;stroke-opacity:1"
           d="M 16.029337,21.377453 35.240155,17.86419 c 0,0 0.263324,-1.55755 1.794006,-1.831381 1.185302,-0.212045 1.92256,0.632695 2.24251,1.457629 0.205459,0.529742 -0.448503,1.644506 -0.448503,1.644506 0,0 1.496352,0.557826 1.495006,1.196005 -0.002,0.922254 -1.245518,1.713853 -2.167758,1.719256 -0.976835,0.0058 -2.317258,-1.794006 -2.317258,-1.794006 L 16.565413,23.85328 c 0,0 -0.654946,1.847582 -1.582579,2.08394 -0.811657,0.206807 -1.92688,-0.230702 -2.317259,-0.971755 -0.343912,-0.652843 0.4485,-2.167757 0.4485,-2.167757 0,0 -1.723526,-0.0025 -1.943505,-1.046504 -0.178038,-0.844948 0.94384,-1.717581 1.794005,-1.868756 1.119098,-0.198998 3.064762,1.495005 3.064762,1.495005 z"
           id="path27578"
           sodipodi:nodetypes="ccsscssccsscssc" />
        <path
           style="opacity:1;fill:#e9d207;fill-opacity:1;stroke:none;stroke-width:0.27702px;stroke-linecap:butt;stroke-linejoin:miter;stroke-opacity:1"
           d="m 19.785537,23.24621 2.466759,0.224251 c 0,0 1.494321,1.957835 3.816797,1.741148 2.437839,-0.227448 3.433979,-2.50734 3.433979,-2.50734 l 1.999571,-0.485875 c 0,0 -0.296279,1.963754 -1.902222,3.366027 -0.781392,0.682295 -1.812323,1.292177 -3.386362,1.361927 -2.134423,0.09459 -3.494031,-0.587676 -4.499281,-1.391246 -1.314454,-1.050739 -1.929241,-2.308892 -1.929241,-2.308892 z"
           id="path25731"
           sodipodi:nodetypes="ccsccsssc" />
        <path
           style="opacity:1;fill:#ffe500;fill-opacity:1;stroke:none;stroke-width:0.27702px;stroke-linecap:butt;stroke-linejoin:miter;stroke-opacity:1"
           d="m 20.196664,4.9510815 c 0.673214,-0.6732138 -1.747896,-1.1740917 -1.270755,-2.1677576 0.43478,-0.9054495 2.369072,0.5229407 2.634947,0.2055631 0,0 -0.381803,-2.37166816 0.448503,-2.46675886 1.032371,-0.11823227 1.405303,1.69464786 1.794004,1.86875656 0.494833,0.2216476 1.657174,-1.225254 2.335946,-0.8409404 0.565412,0.3201306 -0.09343,1.7379438 -0.09343,1.7379438 1.084001,0.2308183 3.116145,1.2508438 4.186015,2.4667587 1.128168,1.282172 1.724157,3.0269373 2.018256,4.7092672 0.219209,1.253934 -0.435341,2.556936 -0.224251,3.812263 0.335316,1.994102 2.659159,1.541636 2.504134,5.232519 -0.07585,1.805617 -2.972103,2.964235 -4.746641,3.289011 -2.167626,0.396719 -4.709268,-1.270754 -4.709268,-1.270754 0,0 -1.887497,1.973123 -3.139512,2.093007 -1.667549,0.159671 -3.554172,-0.663244 -4.634516,-1.943507 -0.923801,-1.094753 -1.192645,-2.419736 -0.971752,-4.186015 0.159281,-1.273623 1.226187,-2.51508 1.226187,-2.51508 -0.625888,-1.644133 -0.681027,-3.922074 -0.179683,-5.7821985 0.492971,-1.8290606 1.79748,-3.217736 2.821821,-4.242078 z"
           id="path23594"
           sodipodi:nodetypes="sssssssssssscssssss" />
        <circle
           style="opacity:1;fill:#ffffff;stroke:none;stroke-width:0.27702"
           id="path32246"
           cx="29.073248"
           cy="33.449623"
           r="1.7566314" />
        <ellipse
           style="opacity:1;fill:#000000;stroke:none;stroke-width:0.334643"
           id="path32463"
           cx="24.84984"
           cy="19.097569"
           rx="3.513263"
           ry="2.4293835" />
        <ellipse
           style="opacity:1;fill:#ffffff;stroke:none;stroke-width:0.27702"
           id="path33466"
           cx="27.92804"
           cy="14.398846"
           rx="1.1586292"
           ry="0.80356544"
           transform="rotate(7.5813932)" />
        <ellipse
           style="opacity:1;fill:#241c1c;stroke:none;stroke-width:0.27702"
           id="path33780"
           cx="26.232727"
           cy="11.940231"
           rx="0.67275238"
           ry="1.1773168" />
        <ellipse
           style="opacity:1;fill:#241c1c;stroke:none;stroke-width:0.27702"
           id="ellipse33862"
           cx="23.579096"
           cy="12.014983"
           rx="0.67275238"
           ry="1.1773168" />
        <path
           style="opacity:1;fill:#000000;stroke:none;stroke-width:0.27702px;stroke-linecap:butt;stroke-linejoin:miter;stroke-opacity:1"
           d="m 22.322866,7.5868848 c -0.382976,0.175484 -0.721233,0.4241625 -0.991056,0.753204 -0.252422,0.3078211 -0.496967,0.6920818 -0.49553,1.0901634 6.34e-4,0.1753591 0.007,0.4320311 0.178389,0.4691011 0.18632,0.0403 0.243147,-0.177298 0.330354,-0.38321 0.129245,-0.3051669 0.281312,-0.6514383 0.502135,-0.8985589 0.223517,-0.2501353 0.530181,-0.3859834 0.792845,-0.5946342 0.144574,-0.1148438 0.284513,-0.2296002 0.151964,-0.4294585 -0.0928,-0.1399246 -0.316462,-0.076548 -0.469101,-0.00661 z"
           id="path33897"
           sodipodi:nodetypes="sssssssss" />
        <path
           style="opacity:1;fill:#000000;stroke:none;stroke-width:0.27702px;stroke-linecap:butt;stroke-linejoin:miter;stroke-opacity:1"
           d="m 27.524122,8.0213483 c -0.124746,-0.4023728 -0.327833,-0.7698158 -0.61942,-1.079735 -0.272782,-0.2899319 -0.595953,-0.661173 -0.99091,-0.71097 -0.173983,-0.021936 -0.455771,0.03065 -0.514585,0.1958299 -0.06394,0.1795858 0.144539,0.2639386 0.337517,0.3769165 0.286,0.1674371 0.530541,0.3760103 0.747193,0.6267957 0.219295,0.2538449 0.314555,0.5754388 0.487673,0.8627679 0.09529,0.1581494 0.349651,0.417404 0.564904,0.3116732 0.150702,-0.07402 0.03735,-0.4229086 -0.01237,-0.5832782 z"
           id="path34691"
           sodipodi:nodetypes="ssssssssss" />
        <path
           style="opacity:1;fill:#51b4f7;fill-opacity:1;stroke:none;stroke-width:0.27702px;stroke-linecap:butt;stroke-linejoin:miter;stroke-opacity:1"
           d="m 23.340353,30.922994 c -0.05507,0.07973 -0.05285,0.211426 -0.05285,0.211426 v 1.744263 c 0,0 -0.07866,0.311946 0.0925,0.436063 0.126316,0.0916 0.352426,0.05276 0.352426,0.05276 l 10.000972,-3.269547 c 0,0 0.225147,-0.09347 0.297169,-0.271729 0.06365,-0.157539 0.01258,-0.357996 0.01258,-0.357996 l -0.973273,-1.838405 c 0,0 -0.114769,-0.217138 -0.258301,-0.271336 -0.134994,-0.05098 -0.361923,0.01778 -0.361923,0.01778 l -8.826623,3.340463 c 0,0 -0.214697,0.107873 -0.282662,0.206262 z"
           id="path31327"
           sodipodi:nodetypes="sccsccsccsccs" />
        <path
           style="fill:#fea800;fill-opacity:1;stroke:none;stroke-width:0.27702px;stroke-linecap:butt;stroke-linejoin:miter;stroke-opacity:1"
           d="m 32.658562,6.6464161 c 0.895106,0.1039594 1.709048,0.043699 2.869196,0.4597067 1.770897,0.6350111 4.212612,1.1773836 5.640689,2.1302572 1.340109,0.894178 2.330041,2.053688 2.80138,3.594237 0.519448,1.697789 -0.303967,4.909651 -0.784886,5.238287 -0.416549,0.284649 0.914966,-3.544686 -0.800794,-6.08399 C 41.552971,10.75479 41.407494,10.746971 40.190604,9.7649443 38.380277,8.3040162 37.133511,8.4612742 35.169244,7.5714032 34.76008,7.3860398 32.658562,6.6464161 32.658562,6.6464161 Z"
           id="path47631"
           sodipodi:nodetypes="csssssssc" />
      </g>
    </g>
    <g
       aria-label="Cadastre seu Pet em nosso site e concorra a brindes incríveis!
CLIQUE AQUI."
       transform="matrix(0.26458334,0,0,0.26458334,-3.1413462,15.70673)"
       id="text2921"
       style="font-size:26.6667px;line-height:1.25;white-space:pre;shape-inside:url(#rect2923);fill:#ff0000">
      <path
         d="m 49.951032,166.0788 q -1.38021,0.71615 -2.877607,1.08074 -1.497398,0.36458 -3.125004,0.36458 -4.856777,0 -7.695323,-2.70834 -2.838545,-2.72136 -2.838545,-7.3698 0,-4.66146 2.838545,-7.3698 2.838546,-2.72136 7.695323,-2.72136 1.627606,0 3.125004,0.36459 1.497397,0.36458 2.877607,1.08073 v 4.02344 q -1.39323,-0.95052 -2.747399,-1.39323 -1.354168,-0.44271 -2.851566,-0.44271 -2.682295,0 -4.218755,1.71875 -1.536461,1.71875 -1.536461,4.73959 0,3.00782 1.536461,4.72657 1.53646,1.71875 4.218755,1.71875 1.497398,0 2.851566,-0.44271 1.354169,-0.44271 2.747399,-1.39323 z"
         style="fill:#ffffff"
         id="path55535" />
      <path
         d="m 60.432817,160.58401 q -1.458336,0 -2.200524,0.49479 -0.729168,0.49479 -0.729168,1.45833 0,0.88542 0.585939,1.39323 0.598959,0.4948 1.653648,0.4948 1.315105,0 2.213544,-0.9375 0.898439,-0.95053 0.898439,-2.3698 v -0.53385 z m 7.122404,-1.75782 v 8.32032 h -4.700526 v -2.16146 q -0.937502,1.32813 -2.109378,1.94011 -1.171876,0.59896 -2.851566,0.59896 -2.265628,0 -3.684901,-1.31511 -1.406251,-1.32812 -1.406251,-3.4375 0,-2.56511 1.757814,-3.76303 1.770836,-1.19792 5.546882,-1.19792 h 2.7474 v -0.36458 q 0,-1.10677 -0.872397,-1.61458 -0.872397,-0.52084 -2.721358,-0.52084 -1.497398,0 -2.786462,0.29948 -1.289064,0.29948 -2.395836,0.89844 v -3.55469 q 1.497398,-0.36459 3.007816,-0.54688 1.510419,-0.19531 3.020837,-0.19531 3.945318,0 5.690112,1.5625 1.757814,1.54948 1.757814,5.05209 z"
         style="fill:#ffffff"
         id="path55537" />
      <path
         d="m 81.813051,154.69858 v -7.81251 h 4.687506 v 20.26044 h -4.687506 v -2.10937 q -0.963542,1.28906 -2.122398,1.88802 -1.158856,0.59896 -2.682295,0.59896 -2.695316,0 -4.427089,-2.13542 -1.731773,-2.14844 -1.731773,-5.52084 0,-3.3724 1.731773,-5.50782 1.731773,-2.14844 4.427089,-2.14844 1.510418,0 2.669274,0.61198 1.171877,0.59896 2.135419,1.875 z m -3.07292,9.44012 q 1.497398,0 2.278649,-1.09375 0.794271,-1.09375 0.794271,-3.17709 0,-2.08334 -0.794271,-3.17709 -0.781251,-1.09375 -2.278649,-1.09375 -1.484377,0 -2.278649,1.09375 -0.781251,1.09375 -0.781251,3.17709 0,2.08334 0.781251,3.17709 0.794272,1.09375 2.278649,1.09375 z"
         style="fill:#ffffff"
         id="path55539" />
      <path
         d="m 97.516196,160.58401 q -1.458335,0 -2.200523,0.49479 -0.729168,0.49479 -0.729168,1.45833 0,0.88542 0.585938,1.39323 0.598959,0.4948 1.653648,0.4948 1.315106,0 2.213545,-0.9375 0.898438,-0.95053 0.898438,-2.3698 v -0.53385 z m 7.122404,-1.75782 v 8.32032 h -4.700526 v -2.16146 q -0.937501,1.32813 -2.109377,1.94011 -1.171877,0.59896 -2.851566,0.59896 -2.265628,0 -3.684901,-1.31511 -1.406252,-1.32812 -1.406252,-3.4375 0,-2.56511 1.757815,-3.76303 1.770836,-1.19792 5.546882,-1.19792 h 2.747399 v -0.36458 q 0,-1.10677 -0.872397,-1.61458 -0.872396,-0.52084 -2.721357,-0.52084 -1.497398,0 -2.786462,0.29948 -1.289064,0.29948 -2.395836,0.89844 v -3.55469 q 1.497397,-0.36459 3.007816,-0.54688 1.510419,-0.19531 3.020837,-0.19531 3.945315,0 5.690115,1.5625 1.75781,1.54948 1.75781,5.05209 z"
         style="fill:#ffffff"
         id="path55541" />
      <path
         d="m 120.36779,153.01889 v 3.54167 q -1.4974,-0.625 -2.89063,-0.9375 -1.39323,-0.3125 -2.63021,-0.3125 -1.32813,0 -1.97917,0.33854 -0.63803,0.32553 -0.63803,1.01563 0,0.5599 0.48178,0.85938 0.49479,0.29948 1.75781,0.44271 l 0.82031,0.11718 q 3.58074,0.45573 4.81772,1.4974 1.23698,1.04167 1.23698,3.26823 0,2.33074 -1.71875,3.50261 -1.71876,1.17188 -5.13022,1.17188 -1.44531,0 -2.99479,-0.23438 -1.53646,-0.22135 -3.16407,-0.67708 v -3.54167 q 1.39323,0.67708 2.85157,1.01562 1.47135,0.33855 2.98177,0.33855 1.36719,0 2.0573,-0.37761 0.6901,-0.3776 0.6901,-1.11979 0,-0.625 -0.48177,-0.92448 -0.46875,-0.3125 -1.88802,-0.48177 l -0.82032,-0.10417 q -3.11198,-0.39063 -4.36198,-1.44531 -1.25,-1.05469 -1.25,-3.20313 0,-2.31771 1.58854,-3.43751 1.58854,-1.11979 4.8698,-1.11979 1.28906,0 2.70833,0.19531 1.41928,0.19531 3.08595,0.61198 z"
         style="fill:#ffffff"
         id="path55543" />
      <path
         d="m 129.93812,148.42253 v 4.14063 h 4.80469 v 3.33334 h -4.80469 v 6.1849 q 0,1.01563 0.40364,1.38021 0.40365,0.35157 1.60157,0.35157 h 2.39583 v 3.33333 h -3.9974 q -2.76042,0 -3.91927,-1.14583 -1.14584,-1.15886 -1.14584,-3.91928 v -6.1849 h -2.31771 v -3.33334 h 2.31771 v -4.14063 z"
         style="fill:#ffffff"
         id="path55545" />
      <path
         d="m 148.42772,156.53452 q -0.61198,-0.28646 -1.22396,-0.41667 -0.59896,-0.14322 -1.21094,-0.14322 -1.79688,0 -2.77344,1.15885 -0.96355,1.14584 -0.96355,3.29428 v 6.71875 h -4.66146 v -14.58335 h 4.66146 v 2.39584 q 0.89844,-1.43229 2.0573,-2.08334 1.17187,-0.66406 2.79948,-0.66406 0.23438,0 0.50781,0.026 0.27344,0.013 0.79428,0.0781 z"
         style="fill:#ffffff"
         id="path55547" />
      <path
         d="m 165.30274,159.81578 v 1.32812 h -10.89845 q 0.16927,1.64063 1.1849,2.46094 1.01562,0.82032 2.83854,0.82032 1.47136,0 3.00782,-0.42969 1.54948,-0.44271 3.17709,-1.32813 v 3.59376 q -1.65365,0.625 -3.3073,0.9375 -1.65365,0.32552 -3.3073,0.32552 -3.95833,0 -6.15886,-2.00521 -2.1875,-2.01823 -2.1875,-5.65105 0,-3.56771 2.14844,-5.61199 2.16146,-2.04427 5.93751,-2.04427 3.4375,0 5.4948,2.07031 2.07031,2.07032 2.07031,5.53387 z m -4.79167,-1.54949 q 0,-1.32812 -0.78125,-2.13541 -0.76823,-0.82032 -2.01823,-0.82032 -1.35417,0 -2.20053,0.76823 -0.84635,0.75521 -1.05469,2.1875 z"
         style="fill:#ffffff"
         id="path55549" />
      <path
         d="m 189.5085,153.01889 v 3.54167 q -1.4974,-0.625 -2.89063,-0.9375 -1.39323,-0.3125 -2.63021,-0.3125 -1.32813,0 -1.97917,0.33854 -0.63802,0.32553 -0.63802,1.01563 0,0.5599 0.48177,0.85938 0.49479,0.29948 1.75782,0.44271 l 0.82031,0.11718 q 3.58073,0.45573 4.81771,1.4974 1.23699,1.04167 1.23699,3.26823 0,2.33074 -1.71876,3.50261 -1.71875,1.17188 -5.13021,1.17188 -1.44532,0 -2.9948,-0.23438 -1.53646,-0.22135 -3.16406,-0.67708 v -3.54167 q 1.39323,0.67708 2.85156,1.01562 1.47136,0.33855 2.98178,0.33855 1.36719,0 2.05729,-0.37761 0.69011,-0.3776 0.69011,-1.11979 0,-0.625 -0.48177,-0.92448 -0.46876,-0.3125 -1.88803,-0.48177 l -0.82031,-0.10417 q -3.11198,-0.39063 -4.36199,-1.44531 -1.25,-1.05469 -1.25,-3.20313 0,-2.31771 1.58855,-3.43751 1.58854,-1.11979 4.86979,-1.11979 1.28907,0 2.70834,0.19531 1.41927,0.19531 3.08594,0.61198 z"
         style="fill:#ffffff"
         id="path55551" />
      <path
         d="m 208.54497,159.81578 v 1.32812 h -10.89845 q 0.16927,1.64063 1.1849,2.46094 1.01563,0.82032 2.83855,0.82032 1.47135,0 3.00781,-0.42969 1.54948,-0.44271 3.17709,-1.32813 v 3.59376 q -1.65365,0.625 -3.3073,0.9375 -1.65364,0.32552 -3.30729,0.32552 -3.95834,0 -6.15886,-2.00521 -2.18751,-2.01823 -2.18751,-5.65105 0,-3.56771 2.14844,-5.61199 2.16146,-2.04427 5.93751,-2.04427 3.43751,0 5.4948,2.07031 2.07031,2.07032 2.07031,5.53387 z m -4.79167,-1.54949 q 0,-1.32812 -0.78125,-2.13541 -0.76823,-0.82032 -2.01823,-0.82032 -1.35417,0 -2.20052,0.76823 -0.84636,0.75521 -1.05469,2.1875 z"
         style="fill:#ffffff"
         id="path55553" />
      <path
         d="m 211.91738,161.46942 v -8.90626 h 4.68751 v 1.45834 q 0,1.18489 -0.013,2.98177 -0.013,1.78386 -0.013,2.38282 0,1.75781 0.0911,2.53906 0.0911,0.76823 0.3125,1.1198 0.28646,0.45573 0.74219,0.70312 0.46875,0.2474 1.06771,0.2474 1.45834,0 2.29167,-1.11979 0.83333,-1.1198 0.83333,-3.11199 v -7.20053 h 4.66147 v 14.58335 h -4.66147 v -2.10937 q -1.05468,1.27604 -2.23958,1.88802 -1.17188,0.59896 -2.59115,0.59896 -2.52605,0 -3.85417,-1.54948 -1.31511,-1.54948 -1.31511,-4.50522 z"
         style="fill:#ffffff"
         id="path55555" />
      <path
         d="m 240.55023,147.70639 h 8.32032 q 3.71095,0 5.69012,1.65364 1.99219,1.64063 1.99219,4.68751 0,3.0599 -1.99219,4.71355 -1.97917,1.64062 -5.69012,1.64062 h -3.30729 v 6.7448 h -5.01303 z m 5.01303,3.63281 v 5.4297 h 2.77344 q 1.45833,0 2.25261,-0.70313 0.79427,-0.71615 0.79427,-2.01823 0,-1.30209 -0.79427,-2.00521 -0.79428,-0.70313 -2.25261,-0.70313 z"
         style="fill:#ffffff"
         id="path55557" />
      <path
         d="m 274.4435,159.81578 v 1.32812 h -10.89845 q 0.16927,1.64063 1.1849,2.46094 1.01563,0.82032 2.83854,0.82032 1.47136,0 3.00782,-0.42969 1.54948,-0.44271 3.17709,-1.32813 v 3.59376 q -1.65365,0.625 -3.3073,0.9375 -1.65365,0.32552 -3.30729,0.32552 -3.95834,0 -6.15887,-2.00521 -2.1875,-2.01823 -2.1875,-5.65105 0,-3.56771 2.14844,-5.61199 2.16146,-2.04427 5.93751,-2.04427 3.4375,0 5.4948,2.07031 2.07031,2.07032 2.07031,5.53387 z m -4.79167,-1.54949 q 0,-1.32812 -0.78125,-2.13541 -0.76823,-0.82032 -2.01823,-0.82032 -1.35417,0 -2.20053,0.76823 -0.84635,0.75521 -1.05468,2.1875 z"
         style="fill:#ffffff"
         id="path55559" />
      <path
         d="m 283.06331,148.42253 v 4.14063 h 4.8047 v 3.33334 h -4.8047 v 6.1849 q 0,1.01563 0.40365,1.38021 0.40365,0.35157 1.60156,0.35157 h 2.39584 v 3.33333 h -3.9974 q -2.76042,0 -3.91928,-1.14583 -1.14583,-1.15886 -1.14583,-3.91928 v -6.1849 h -2.31771 v -3.33334 h 2.31771 v -4.14063 z"
         style="fill:#ffffff"
         id="path55561" />
      <path
         d="m 59.56693,193.14915 v 1.32813 H 48.668479 q 0.169271,1.64062 1.184897,2.46094 1.015626,0.82031 2.838545,0.82031 1.471356,0 3.007817,-0.42969 1.549481,-0.44271 3.177087,-1.32812 v 3.59375 q -1.653648,0.625 -3.307296,0.9375 -1.653648,0.32552 -3.307296,0.32552 -3.958338,0 -6.158862,-2.00521 -2.187502,-2.01823 -2.187502,-5.65105 0,-3.56771 2.14844,-5.61198 2.161461,-2.04428 5.937507,-2.04428 3.437505,0 5.494799,2.07032 2.070315,2.07031 2.070315,5.53386 z m -4.791673,-1.54948 q 0,-1.32813 -0.781251,-2.13542 -0.76823,-0.82031 -2.018231,-0.82031 -1.354169,0 -2.200524,0.76823 -0.846355,0.75521 -1.054689,2.1875 z"
         style="fill:#ffffff"
         id="path55563" />
      <path
         d="m 76.611222,188.31841 q 0.885418,-1.35416 2.096357,-2.05729 1.22396,-0.71615 2.682295,-0.71615 2.513024,0 3.82813,1.54948 1.315106,1.54949 1.315106,4.50522 v 8.88022 h -4.687506 v -7.60418 q 0.01302,-0.16927 0.01302,-0.35156 0.01302,-0.18229 0.01302,-0.52083 0,-1.54949 -0.45573,-2.23959 -0.45573,-0.70313 -1.471356,-0.70313 -1.328127,0 -2.057294,1.09375 -0.716147,1.09376 -0.742189,3.16407 v 7.16147 h -4.687506 v -7.60418 q 0,-2.42188 -0.416667,-3.11198 -0.416667,-0.70313 -1.484377,-0.70313 -1.341147,0 -2.070315,1.10678 -0.729167,1.09375 -0.729167,3.13802 v 7.17449 h -4.687506 v -14.58335 h 4.687506 v 2.13542 q 0.859376,-1.23698 1.966148,-1.86199 1.119793,-0.625 2.460941,-0.625 1.510418,0 2.669274,0.72917 1.158855,0.72917 1.757814,2.04427 z"
         style="fill:#ffffff"
         id="path55565" />
      <path
         d="m 114.82742,191.59967 v 8.88022 h -4.68751 v -1.44532 -5.35157 q 0,-1.88802 -0.0911,-2.60417 -0.0781,-0.71614 -0.28646,-1.05468 -0.27343,-0.45573 -0.74218,-0.70313 -0.46875,-0.26042 -1.06771,-0.26042 -1.45834,0 -2.29167,1.13282 -0.83334,1.11979 -0.83334,3.11198 v 7.17449 h -4.66146 v -14.58335 h 4.66146 v 2.13542 q 1.05469,-1.27605 2.23959,-1.87501 1.1849,-0.61198 2.61719,-0.61198 2.52604,0 3.82813,1.54948 1.31511,1.54949 1.31511,4.50522 z"
         style="fill:#ffffff"
         id="path55567" />
      <path
         d="m 126.09045,188.87831 q -1.54948,0 -2.3698,1.11979 -0.80729,1.10678 -0.80729,3.20313 0,2.09636 0.80729,3.21615 0.82032,1.10678 2.3698,1.10678 1.52344,0 2.33073,-1.10678 0.80729,-1.11979 0.80729,-3.21615 0,-2.09635 -0.80729,-3.20313 -0.80729,-1.11979 -2.33073,-1.11979 z m 0,-3.33334 q 3.76303,0 5.8724,2.03126 2.1224,2.03125 2.1224,5.625 0,3.59376 -2.1224,5.62501 -2.10937,2.03125 -5.8724,2.03125 -3.77605,0 -5.91147,-2.03125 -2.12239,-2.03125 -2.12239,-5.62501 0,-3.59375 2.12239,-5.625 2.13542,-2.03126 5.91147,-2.03126 z"
         style="fill:#ffffff"
         id="path55569" />
      <path
         d="m 148.86392,186.35227 v 3.54167 q -1.4974,-0.625 -2.89063,-0.9375 -1.39323,-0.3125 -2.63021,-0.3125 -1.32813,0 -1.97917,0.33854 -0.63803,0.32552 -0.63803,1.01562 0,0.5599 0.48178,0.85938 0.49479,0.29948 1.75781,0.44271 l 0.82031,0.11719 q 3.58074,0.45573 4.81772,1.49739 1.23698,1.04167 1.23698,3.26824 0,2.33073 -1.71875,3.50261 -1.71876,1.17187 -5.13022,1.17187 -1.44531,0 -2.99479,-0.23437 -1.53646,-0.22136 -3.16407,-0.67709 v -3.54167 q 1.39323,0.67709 2.85157,1.01563 1.47135,0.33854 2.98177,0.33854 1.36719,0 2.0573,-0.3776 0.6901,-0.37761 0.6901,-1.1198 0,-0.625 -0.48177,-0.92448 -0.46875,-0.3125 -1.88802,-0.48177 l -0.82032,-0.10417 q -3.11198,-0.39062 -4.36198,-1.44531 -1.25,-1.05469 -1.25,-3.20313 0,-2.31771 1.58854,-3.4375 1.58854,-1.1198 4.8698,-1.1198 1.28906,0 2.70833,0.19532 1.41928,0.19531 3.08595,0.61198 z"
         style="fill:#ffffff"
         id="path55571" />
      <path
         d="m 164.73634,186.35227 v 3.54167 q -1.4974,-0.625 -2.89063,-0.9375 -1.39323,-0.3125 -2.63021,-0.3125 -1.32813,0 -1.97917,0.33854 -0.63802,0.32552 -0.63802,1.01562 0,0.5599 0.48177,0.85938 0.49479,0.29948 1.75781,0.44271 l 0.82032,0.11719 q 3.58073,0.45573 4.81771,1.49739 1.23698,1.04167 1.23698,3.26824 0,2.33073 -1.71875,3.50261 -1.71875,1.17187 -5.13022,1.17187 -1.44531,0 -2.99479,-0.23437 -1.53646,-0.22136 -3.16407,-0.67709 v -3.54167 q 1.39323,0.67709 2.85157,1.01563 1.47135,0.33854 2.98177,0.33854 1.36719,0 2.0573,-0.3776 0.6901,-0.37761 0.6901,-1.1198 0,-0.625 -0.48177,-0.92448 -0.46875,-0.3125 -1.88802,-0.48177 l -0.82032,-0.10417 q -3.11198,-0.39062 -4.36198,-1.44531 -1.25,-1.05469 -1.25,-3.20313 0,-2.31771 1.58854,-3.4375 1.58854,-1.1198 4.8698,-1.1198 1.28906,0 2.70834,0.19532 1.41927,0.19531 3.08594,0.61198 z"
         style="fill:#ffffff"
         id="path55573" />
      <path
         d="m 176.15562,188.87831 q -1.54948,0 -2.36979,1.11979 -0.8073,1.10678 -0.8073,3.20313 0,2.09636 0.8073,3.21615 0.82031,1.10678 2.36979,1.10678 1.52344,0 2.33073,-1.10678 0.80729,-1.11979 0.80729,-3.21615 0,-2.09635 -0.80729,-3.20313 -0.80729,-1.11979 -2.33073,-1.11979 z m 0,-3.33334 q 3.76303,0 5.8724,2.03126 2.1224,2.03125 2.1224,5.625 0,3.59376 -2.1224,5.62501 -2.10937,2.03125 -5.8724,2.03125 -3.77605,0 -5.91147,-2.03125 -2.12239,-2.03125 -2.12239,-5.62501 0,-3.59375 2.12239,-5.625 2.13542,-2.03126 5.91147,-2.03126 z"
         style="fill:#ffffff"
         id="path55575" />
      <path
         d="m 208.21295,186.35227 v 3.54167 q -1.4974,-0.625 -2.89063,-0.9375 -1.39323,-0.3125 -2.63021,-0.3125 -1.32812,0 -1.97917,0.33854 -0.63802,0.32552 -0.63802,1.01562 0,0.5599 0.48177,0.85938 0.4948,0.29948 1.75782,0.44271 l 0.82031,0.11719 q 3.58073,0.45573 4.81772,1.49739 1.23698,1.04167 1.23698,3.26824 0,2.33073 -1.71876,3.50261 -1.71875,1.17187 -5.13021,1.17187 -1.44531,0 -2.9948,-0.23437 -1.53646,-0.22136 -3.16406,-0.67709 v -3.54167 q 1.39323,0.67709 2.85156,1.01563 1.47136,0.33854 2.98178,0.33854 1.36719,0 2.05729,-0.3776 0.69011,-0.37761 0.69011,-1.1198 0,-0.625 -0.48177,-0.92448 -0.46875,-0.3125 -1.88803,-0.48177 l -0.82031,-0.10417 q -3.11198,-0.39062 -4.36199,-1.44531 -1.25,-1.05469 -1.25,-3.20313 0,-2.31771 1.58855,-3.4375 1.58854,-1.1198 4.86979,-1.1198 1.28907,0 2.70834,0.19532 1.41927,0.19531 3.08594,0.61198 z"
         style="fill:#ffffff"
         id="path55577" />
      <path
         d="m 212.69212,185.89654 h 4.66146 v 14.58335 h -4.66146 z m 0,-5.67709 h 4.66146 v 3.80208 h -4.66146 z"
         style="fill:#ffffff"
         id="path55579" />
      <path
         d="m 226.92391,181.75591 v 4.14063 h 4.80469 v 3.33333 h -4.80469 v 6.18491 q 0,1.01562 0.40364,1.38021 0.40365,0.35156 1.60157,0.35156 h 2.39583 v 3.33334 h -3.9974 q -2.76042,0 -3.91927,-1.14584 -1.14584,-1.15885 -1.14584,-3.91927 v -6.18491 h -2.31771 v -3.33333 h 2.31771 v -4.14063 z"
         style="fill:#ffffff"
         id="path55581" />
      <path
         d="m 249.13749,193.14915 v 1.32813 h -10.89845 q 0.16927,1.64062 1.18489,2.46094 1.01563,0.82031 2.83855,0.82031 1.47135,0 3.00781,-0.42969 1.54949,-0.44271 3.17709,-1.32812 v 3.59375 q -1.65365,0.625 -3.30729,0.9375 -1.65365,0.32552 -3.3073,0.32552 -3.95834,0 -6.15886,-2.00521 -2.1875,-2.01823 -2.1875,-5.65105 0,-3.56771 2.14844,-5.61198 2.16146,-2.04428 5.9375,-2.04428 3.43751,0 5.4948,2.07032 2.07032,2.07031 2.07032,5.53386 z m -4.79168,-1.54948 q 0,-1.32813 -0.78125,-2.13542 -0.76823,-0.82031 -2.01823,-0.82031 -1.35417,0 -2.20052,0.76823 -0.84636,0.75521 -1.05469,2.1875 z"
         style="fill:#ffffff"
         id="path55583" />
      <path
         d="m 276.50731,193.14915 v 1.32813 h -10.89845 q 0.16927,1.64062 1.1849,2.46094 1.01563,0.82031 2.83855,0.82031 1.47135,0 3.00781,-0.42969 1.54948,-0.44271 3.17709,-1.32812 v 3.59375 q -1.65365,0.625 -3.3073,0.9375 -1.65364,0.32552 -3.30729,0.32552 -3.95834,0 -6.15886,-2.00521 -2.18751,-2.01823 -2.18751,-5.65105 0,-3.56771 2.14844,-5.61198 2.16146,-2.04428 5.93751,-2.04428 3.4375,0 5.4948,2.07032 2.07031,2.07031 2.07031,5.53386 z m -4.79167,-1.54948 q 0,-1.32813 -0.78125,-2.13542 -0.76823,-0.82031 -2.01823,-0.82031 -1.35417,0 -2.20053,0.76823 -0.84635,0.75521 -1.05468,2.1875 z"
         style="fill:#ffffff"
         id="path55585" />
      <path
         d="m 33.551272,219.68564 v 3.80209 q -0.950522,-0.65104 -1.914065,-0.96354 -0.950522,-0.3125 -1.979169,-0.3125 -1.953127,0 -3.046879,1.14583 -1.08073,1.13281 -1.08073,3.17709 0,2.04427 1.08073,3.19011 1.093752,1.13281 3.046879,1.13281 1.093751,0 2.070315,-0.32552 0.989585,-0.32552 1.822919,-0.96354 v 3.8151 q -1.093751,0.40365 -2.226565,0.59896 -1.119793,0.20834 -2.252607,0.20834 -3.945318,0 -6.171883,-2.01823 -2.226565,-2.03126 -2.226565,-5.63803 0,-3.60678 2.226565,-5.62501 2.226565,-2.03125 6.171883,-2.03125 1.145835,0 2.252607,0.20833 1.119793,0.19531 2.226565,0.59896 z"
         style="fill:#ffffff"
         id="path55587" />
      <path
         d="m 44.514828,222.21169 q -1.549481,0 -2.369795,1.11979 -0.807292,1.10677 -0.807292,3.20313 0,2.09635 0.807292,3.21615 0.820314,1.10677 2.369795,1.10677 1.523439,0 2.330732,-1.10677 0.807293,-1.1198 0.807293,-3.21615 0,-2.09636 -0.807293,-3.20313 -0.807293,-1.11979 -2.330732,-1.11979 z m 0,-3.33334 q 3.763026,0 5.872403,2.03125 2.122399,2.03125 2.122399,5.62501 0,3.59375 -2.122399,5.625 -2.109377,2.03126 -5.872403,2.03126 -3.776046,0 -5.911466,-2.03126 -2.122398,-2.03125 -2.122398,-5.625 0,-3.59376 2.122398,-5.62501 2.13542,-2.03125 5.911466,-2.03125 z"
         style="fill:#ffffff"
         id="path55589" />
      <path
         d="m 70.556527,224.93304 v 8.88022 h -4.687506 v -1.44531 -5.35157 q 0,-1.88802 -0.09115,-2.60417 -0.07813,-0.71615 -0.286458,-1.05469 -0.273438,-0.45573 -0.742189,-0.70313 -0.46875,-0.26041 -1.067709,-0.26041 -1.458336,0 -2.29167,1.13281 -0.833334,1.11979 -0.833334,3.11198 v 7.17449 H 55.89505 v -14.58335 h 4.661465 v 2.13542 q 1.054689,-1.27604 2.239586,-1.875 1.184897,-0.61198 2.617191,-0.61198 2.526045,0 3.82813,1.54948 1.315105,1.54948 1.315105,4.50521 z"
         style="fill:#ffffff"
         id="path55591" />
      <path
         d="m 86.663317,219.68564 v 3.80209 q -0.950522,-0.65104 -1.914064,-0.96354 -0.950523,-0.3125 -1.97917,-0.3125 -1.953127,0 -3.046878,1.14583 -1.080731,1.13281 -1.080731,3.17709 0,2.04427 1.080731,3.19011 1.093751,1.13281 3.046878,1.13281 1.093752,0 2.070315,-0.32552 0.989585,-0.32552 1.822919,-0.96354 v 3.8151 q -1.093751,0.40365 -2.226565,0.59896 -1.119793,0.20834 -2.252607,0.20834 -3.945317,0 -6.171883,-2.01823 -2.226565,-2.03126 -2.226565,-5.63803 0,-3.60678 2.226565,-5.62501 2.226566,-2.03125 6.171883,-2.03125 1.145835,0 2.252607,0.20833 1.119793,0.19531 2.226565,0.59896 z"
         style="fill:#ffffff"
         id="path55593" />
      <path
         d="m 97.626873,222.21169 q -1.549481,0 -2.369794,1.11979 -0.807293,1.10677 -0.807293,3.20313 0,2.09635 0.807293,3.21615 0.820313,1.10677 2.369794,1.10677 1.52344,0 2.330732,-1.10677 0.807295,-1.1198 0.807295,-3.21615 0,-2.09636 -0.807295,-3.20313 -0.807292,-1.11979 -2.330732,-1.11979 z m 0,-3.33334 q 3.763027,0 5.872407,2.03125 2.1224,2.03125 2.1224,5.62501 0,3.59375 -2.1224,5.625 -2.10938,2.03126 -5.872407,2.03126 -3.776046,0 -5.911465,-2.03126 -2.122399,-2.03125 -2.122399,-5.625 0,-3.59376 2.122399,-5.62501 2.135419,-2.03125 5.911465,-2.03125 z"
         style="fill:#ffffff"
         id="path55595" />
      <path
         d="m 119.84044,223.20127 q -0.61198,-0.28646 -1.22396,-0.41667 -0.59896,-0.14323 -1.21094,-0.14323 -1.79687,0 -2.77344,1.15886 -0.96354,1.14583 -0.96354,3.29427 v 6.71876 h -4.66146 v -14.58335 h 4.66146 v 2.39584 q 0.89844,-1.4323 2.05729,-2.08334 1.17188,-0.66406 2.79949,-0.66406 0.23437,0 0.50781,0.026 0.27344,0.013 0.79427,0.0781 z"
         style="fill:#ffffff"
         id="path55597" />
      <path
         d="m 132.9915,223.20127 q -0.61198,-0.28646 -1.22396,-0.41667 -0.59895,-0.14323 -1.21093,-0.14323 -1.79688,0 -2.77345,1.15886 -0.96354,1.14583 -0.96354,3.29427 v 6.71876 h -4.66146 v -14.58335 h 4.66146 v 2.39584 q 0.89844,-1.4323 2.0573,-2.08334 1.17187,-0.66406 2.79948,-0.66406 0.23437,0 0.50781,0.026 0.27344,0.013 0.79427,0.0781 z"
         style="fill:#ffffff"
         id="path55599" />
      <path
         d="m 141.84568,227.25075 q -1.45834,0 -2.20052,0.4948 -0.72917,0.49479 -0.72917,1.45833 0,0.88542 0.58594,1.39323 0.59895,0.49479 1.65364,0.49479 1.31511,0 2.21355,-0.9375 0.89844,-0.95052 0.89844,-2.36979 v -0.53386 z m 7.1224,-1.75781 v 8.32032 h -4.70052 v -2.16146 q -0.9375,1.32813 -2.10938,1.94011 -1.17188,0.59896 -2.85157,0.59896 -2.26562,0 -3.6849,-1.31511 -1.40625,-1.32813 -1.40625,-3.4375 0,-2.56511 1.75782,-3.76303 1.77083,-1.19792 5.54688,-1.19792 h 2.7474 v -0.36458 q 0,-1.10677 -0.8724,-1.61459 -0.8724,-0.52083 -2.72136,-0.52083 -1.4974,0 -2.78646,0.29948 -1.28906,0.29948 -2.39584,0.89844 v -3.55469 q 1.4974,-0.36459 3.00782,-0.54688 1.51042,-0.19531 3.02084,-0.19531 3.94532,0 5.69011,1.5625 1.75781,1.54948 1.75781,5.05209 z"
         style="fill:#ffffff"
         id="path55601" />
      <path
         d="m 169.12437,227.25075 q -1.45834,0 -2.20053,0.4948 -0.72917,0.49479 -0.72917,1.45833 0,0.88542 0.58594,1.39323 0.59896,0.49479 1.65365,0.49479 1.31511,0 2.21354,-0.9375 0.89844,-0.95052 0.89844,-2.36979 v -0.53386 z m 7.1224,-1.75781 v 8.32032 h -4.70053 v -2.16146 q -0.9375,1.32813 -2.10937,1.94011 -1.17188,0.59896 -2.85157,0.59896 -2.26563,0 -3.6849,-1.31511 -1.40625,-1.32813 -1.40625,-3.4375 0,-2.56511 1.75781,-3.76303 1.77084,-1.19792 5.54688,-1.19792 h 2.7474 v -0.36458 q 0,-1.10677 -0.87239,-1.61459 -0.8724,-0.52083 -2.72136,-0.52083 -1.4974,0 -2.78646,0.29948 -1.28907,0.29948 -2.39584,0.89844 v -3.55469 q 1.4974,-0.36459 3.00782,-0.54688 1.51042,-0.19531 3.02083,-0.19531 3.94532,0 5.69012,1.5625 1.75781,1.54948 1.75781,5.05209 z"
         style="fill:#ffffff"
         id="path55603" />
      <path
         d="m 197.627,230.80545 q 1.49739,0 2.27865,-1.09376 0.79427,-1.09375 0.79427,-3.17708 0,-2.08334 -0.79427,-3.17709 -0.78126,-1.09375 -2.27865,-1.09375 -1.4974,0 -2.30469,1.10677 -0.79428,1.09375 -0.79428,3.16407 0,2.07031 0.79428,3.17708 0.80729,1.09376 2.30469,1.09376 z m -3.09897,-9.44012 q 0.96355,-1.27604 2.13542,-1.875 1.17188,-0.61198 2.69532,-0.61198 2.69532,0 4.42709,2.14844 1.73177,2.13542 1.73177,5.50782 0,3.3724 -1.73177,5.52084 -1.73177,2.13542 -4.42709,2.13542 -1.52344,0 -2.69532,-0.59896 -1.17187,-0.61198 -2.13542,-1.88803 v 2.10938 h -4.66146 v -20.26044 h 4.66146 z"
         style="fill:#ffffff"
         id="path55605" />
      <path
         d="m 219.78849,223.20127 q -0.61198,-0.28646 -1.22396,-0.41667 -0.59895,-0.14323 -1.21093,-0.14323 -1.79688,0 -2.77345,1.15886 -0.96354,1.14583 -0.96354,3.29427 v 6.71876 h -4.66146 v -14.58335 h 4.66146 v 2.39584 q 0.89844,-1.4323 2.0573,-2.08334 1.17187,-0.66406 2.79948,-0.66406 0.23437,0 0.50781,0.026 0.27344,0.013 0.79427,0.0781 z"
         style="fill:#ffffff"
         id="path55607" />
      <path
         d="m 222.10619,219.22991 h 4.66147 v 14.58335 h -4.66147 z m 0,-5.67709 h 4.66147 v 3.80209 h -4.66147 z"
         style="fill:#ffffff"
         id="path55609" />
      <path
         d="m 245.90831,224.93304 v 8.88022 h -4.6875 v -1.44531 -5.35157 q 0,-1.88802 -0.0911,-2.60417 -0.0781,-0.71615 -0.28646,-1.05469 -0.27344,-0.45573 -0.74219,-0.70313 -0.46875,-0.26041 -1.06771,-0.26041 -1.45833,0 -2.29167,1.13281 -0.83333,1.11979 -0.83333,3.11198 v 7.17449 h -4.66147 v -14.58335 h 4.66147 v 2.13542 q 1.05469,-1.27604 2.23958,-1.875 1.1849,-0.61198 2.6172,-0.61198 2.52604,0 3.82813,1.54948 1.3151,1.54948 1.3151,4.50521 z"
         style="fill:#ffffff"
         id="path55611" />
      <path
         d="m 260.15313,221.36533 v -7.81251 h 4.6875 v 20.26044 h -4.6875 v -2.10938 q -0.96355,1.28907 -2.1224,1.88803 -1.15886,0.59896 -2.6823,0.59896 -2.69531,0 -4.42709,-2.13542 -1.73177,-2.14844 -1.73177,-5.52084 0,-3.3724 1.73177,-5.50782 1.73178,-2.14844 4.42709,-2.14844 1.51042,0 2.66928,0.61198 1.17187,0.59896 2.13542,1.875 z m -3.07292,9.44012 q 1.49739,0 2.27865,-1.09376 0.79427,-1.09375 0.79427,-3.17708 0,-2.08334 -0.79427,-3.17709 -0.78126,-1.09375 -2.27865,-1.09375 -1.48438,0 -2.27865,1.09375 -0.78125,1.09375 -0.78125,3.17709 0,2.08333 0.78125,3.17708 0.79427,1.09376 2.27865,1.09376 z"
         style="fill:#ffffff"
         id="path55613" />
      <path
         d="m 283.87711,226.48252 v 1.32813 h -10.89845 q 0.16927,1.64063 1.1849,2.46094 1.01562,0.82031 2.83854,0.82031 1.47136,0 3.00782,-0.42968 1.54948,-0.44271 3.17709,-1.32813 v 3.59375 q -1.65365,0.62501 -3.3073,0.93751 -1.65365,0.32552 -3.30729,0.32552 -3.95834,0 -6.15887,-2.00521 -2.1875,-2.01824 -2.1875,-5.65105 0,-3.56772 2.14844,-5.61199 2.16146,-2.04427 5.93751,-2.04427 3.4375,0 5.4948,2.07031 2.07031,2.07032 2.07031,5.53386 z m -4.79167,-1.54948 q 0,-1.32812 -0.78125,-2.13542 -0.76823,-0.82031 -2.01823,-0.82031 -1.35417,0 -2.20053,0.76823 -0.84635,0.75521 -1.05469,2.1875 z"
         style="fill:#ffffff"
         id="path55615" />
      <path
         d="m 298.79901,219.68564 v 3.54167 q -1.49739,-0.625 -2.89063,-0.9375 -1.39323,-0.3125 -2.63021,-0.3125 -1.32812,0 -1.97917,0.33854 -0.63802,0.32552 -0.63802,1.01563 0,0.55989 0.48177,0.85937 0.4948,0.29948 1.75782,0.44271 l 0.82031,0.11719 q 3.58074,0.45573 4.81772,1.4974 1.23698,1.04167 1.23698,3.26823 0,2.33073 -1.71876,3.50261 -1.71875,1.17188 -5.13021,1.17188 -1.44531,0 -2.9948,-0.23438 -1.53646,-0.22135 -3.16406,-0.67708 v -3.54167 q 1.39323,0.67708 2.85156,1.01562 1.47136,0.33854 2.98178,0.33854 1.36719,0 2.05729,-0.3776 0.69011,-0.3776 0.69011,-1.11979 0,-0.625 -0.48177,-0.92448 -0.46875,-0.3125 -1.88803,-0.48177 l -0.82031,-0.10417 q -3.11198,-0.39063 -4.36198,-1.44532 -1.25001,-1.05468 -1.25001,-3.20313 0,-2.31771 1.58855,-3.4375 1.58854,-1.11979 4.8698,-1.11979 1.28906,0 2.70833,0.19531 1.41927,0.19531 3.08594,0.61198 z"
         style="fill:#ffffff"
         id="path55617" />
      <path
         d="m 93.089108,252.56328 h 4.661464 v 14.58336 h -4.661464 z m 0,-5.67709 h 4.661464 v 3.80209 h -4.661464 z"
         style="fill:#ffffff"
         id="path55619" />
      <path
         d="m 116.89122,258.26642 v 8.88022 h -4.6875 v -1.44532 -5.35157 q 0,-1.88802 -0.0911,-2.60417 -0.0781,-0.71614 -0.28646,-1.05469 -0.27344,-0.45573 -0.74219,-0.70312 -0.46875,-0.26042 -1.06771,-0.26042 -1.45833,0 -2.29167,1.13281 -0.83333,1.1198 -0.83333,3.11199 v 7.17449 h -4.66147 v -14.58336 h 4.66147 v 2.13542 q 1.05469,-1.27604 2.23958,-1.875 1.1849,-0.61198 2.6172,-0.61198 2.52604,0 3.82813,1.54948 1.3151,1.54948 1.3151,4.50522 z"
         style="fill:#ffffff"
         id="path55621" />
      <path
         d="m 132.99801,253.01901 v 3.80209 q -0.95052,-0.65104 -1.91406,-0.96354 -0.95052,-0.3125 -1.97917,-0.3125 -1.95313,0 -3.04688,1.14583 -1.08073,1.13282 -1.08073,3.17709 0,2.04427 1.08073,3.19011 1.09375,1.13281 3.04688,1.13281 1.09375,0 2.07031,-0.32552 0.98959,-0.32552 1.82292,-0.96354 v 3.81511 q -1.09375,0.40364 -2.22656,0.59896 -1.1198,0.20833 -2.25261,0.20833 -3.94532,0 -6.17188,-2.01823 -2.22657,-2.03125 -2.22657,-5.63803 0,-3.60677 2.22657,-5.62501 2.22656,-2.03125 6.17188,-2.03125 1.14584,0 2.25261,0.20834 1.11979,0.19531 2.22656,0.59895 z"
         style="fill:#ffffff"
         id="path55623" />
      <path
         d="m 147.8548,256.53464 q -0.61197,-0.28646 -1.22395,-0.41666 -0.59896,-0.14323 -1.21094,-0.14323 -1.79688,0 -2.77344,1.15885 -0.96355,1.14584 -0.96355,3.29428 v 6.71876 h -4.66146 v -14.58336 h 4.66146 v 2.39584 q 0.89844,-1.43229 2.0573,-2.08334 1.17187,-0.66406 2.79948,-0.66406 0.23437,0 0.50781,0.026 0.27344,0.013 0.79427,0.0781 z"
         style="fill:#ffffff"
         id="path55625" />
      <path
         d="m 150.17251,252.56328 h 4.66147 v 14.58336 h -4.66147 z m 4.40105,-6.7448 h 3.6849 l -4.80469,4.89584 h -2.55209 z"
         style="fill:#ffffff"
         id="path55627" />
      <path
         d="m 157.47721,252.56328 h 4.66147 l 3.63281,10.07814 3.6198,-10.07814 h 4.67449 l -5.7422,14.58336 h -5.11719 z"
         style="fill:#ffffff"
         id="path55629" />
      <path
         d="m 191.2533,259.8159 v 1.32812 h -10.89845 q 0.16927,1.64063 1.18489,2.46095 1.01563,0.82031 2.83855,0.82031 1.47136,0 3.00782,-0.42969 1.54948,-0.44271 3.17708,-1.32813 v 3.59376 q -1.65364,0.625 -3.30729,0.9375 -1.65365,0.32552 -3.3073,0.32552 -3.95834,0 -6.15886,-2.00521 -2.1875,-2.01823 -2.1875,-5.65105 0,-3.56771 2.14844,-5.61199 2.16146,-2.04427 5.9375,-2.04427 3.43751,0 5.4948,2.07032 2.07032,2.07031 2.07032,5.53386 z m -4.79167,-1.54948 q 0,-1.32813 -0.78126,-2.13542 -0.76823,-0.82032 -2.01823,-0.82032 -1.35417,0 -2.20052,0.76823 -0.84636,0.75521 -1.05469,2.18751 z"
         style="fill:#ffffff"
         id="path55631" />
      <path
         d="m 194.78195,252.56328 h 4.66146 v 14.58336 h -4.66146 z m 0,-5.67709 h 4.66146 v 3.80209 h -4.66146 z"
         style="fill:#ffffff"
         id="path55633" />
      <path
         d="m 215.31582,253.01901 v 3.54168 q -1.49739,-0.62501 -2.89062,-0.93751 -1.39324,-0.3125 -2.63022,-0.3125 -1.32812,0 -1.97916,0.33855 -0.63803,0.32552 -0.63803,1.01562 0,0.5599 0.48177,0.85938 0.4948,0.29948 1.75782,0.44271 l 0.82031,0.11718 q 3.58074,0.45573 4.81772,1.4974 1.23698,1.04167 1.23698,3.26824 0,2.33073 -1.71875,3.5026 -1.71876,1.17188 -5.13022,1.17188 -1.44531,0 -2.99479,-0.23437 -1.53646,-0.22136 -3.16407,-0.67709 v -3.54167 q 1.39323,0.67708 2.85157,1.01563 1.47135,0.33854 2.98177,0.33854 1.36719,0 2.05729,-0.37761 0.69011,-0.3776 0.69011,-1.11979 0,-0.625 -0.48177,-0.92448 -0.46875,-0.3125 -1.88803,-0.48177 l -0.82031,-0.10417 q -3.11198,-0.39062 -4.36198,-1.44531 -1.25001,-1.05469 -1.25001,-3.20313 0,-2.31771 1.58855,-3.43751 1.58854,-1.11979 4.8698,-1.11979 1.28906,0 2.70833,0.19531 1.41928,0.19532 3.08594,0.61198 z"
         style="fill:#ffffff"
         id="path55635" />
      <path
         d="m 221.29239,247.70651 h 4.68751 v 7.46094 l -0.66407,5.44272 h -3.35937 l -0.66407,-5.44272 z m 0,14.8047 h 4.68751 v 4.63543 h -4.68751 z"
         style="fill:#ffffff"
         id="path55637" />
      <path
         d="m 76.487524,299.4123 q -1.38021,0.71615 -2.877607,1.08073 -1.497398,0.36458 -3.125004,0.36458 -4.856777,0 -7.695323,-2.70833 -2.838545,-2.72136 -2.838545,-7.3698 0,-4.66147 2.838545,-7.3698 2.838546,-2.72136 7.695323,-2.72136 1.627606,0 3.125004,0.36458 1.497397,0.36459 2.877607,1.08073 v 4.02345 q -1.393231,-0.95053 -2.747399,-1.39324 -1.354168,-0.4427 -2.851566,-0.4427 -2.682295,0 -4.218755,1.71875 -1.536461,1.71875 -1.536461,4.73959 0,3.00781 1.536461,4.72657 1.53646,1.71875 4.218755,1.71875 1.497398,0 2.851566,-0.44271 1.354168,-0.44271 2.747399,-1.39323 z"
         style="font-weight:bold;-inkscape-font-specification:'sans-serif Bold';text-align:center;text-anchor:middle"
         id="path55639" />
      <path
         d="m 80.641175,281.03988 h 5.013028 v 15.65106 h 8.802094 v 3.78907 H 80.641175 Z"
         style="font-weight:bold;-inkscape-font-specification:'sans-serif Bold';text-align:center;text-anchor:middle"
         id="path55641" />
      <path
         d="m 97.633384,281.03988 h 5.013026 v 19.44013 h -5.013026 z"
         style="font-weight:bold;-inkscape-font-specification:'sans-serif Bold';text-align:center;text-anchor:middle"
         id="path55643" />
      <path
         d="m 116.96934,300.83157 h -0.39062 q -4.80469,0 -7.47397,-2.65625 -2.66927,-2.65625 -2.66927,-7.39584 0,-4.72657 2.65625,-7.40887 2.66927,-2.68229 7.34376,-2.68229 4.72657,0 7.35678,2.65625 2.64323,2.65626 2.64323,7.43491 0,3.28125 -1.40625,5.65105 -1.39323,2.36979 -4.02344,3.56771 l 3.91927,4.375 h -4.77865 z m -0.53385,-16.51043 q -2.29167,0 -3.55469,1.69271 -1.26302,1.69271 -1.26302,4.76563 0,3.125 1.23698,4.79167 1.23698,1.65365 3.58073,1.65365 2.30469,0 3.56771,-1.69271 1.26303,-1.69271 1.26303,-4.75261 0,-3.07292 -1.26303,-4.76563 -1.26302,-1.69271 -3.56771,-1.69271 z"
         style="font-weight:bold;-inkscape-font-specification:'sans-serif Bold';text-align:center;text-anchor:middle"
         id="path55645" />
      <path
         d="m 130.22457,281.03988 h 5.01303 v 11.65366 q 0,2.40886 0.78125,3.45053 0.79427,1.02864 2.57813,1.02864 1.79687,0 2.57813,-1.02864 0.79427,-1.04167 0.79427,-3.45053 v -11.65366 h 5.01302 v 11.65366 q 0,4.12761 -2.07031,6.14584 -2.07032,2.01823 -6.31511,2.01823 -4.23178,0 -6.30209,-2.01823 -2.07032,-2.01823 -2.07032,-6.14584 z"
         style="font-weight:bold;-inkscape-font-specification:'sans-serif Bold';text-align:center;text-anchor:middle"
         id="path55647" />
      <path
         d="m 151.87824,281.03988 h 13.52866 v 3.78907 h -8.51563 v 3.6198 h 8.00782 v 3.78906 h -8.00782 v 4.45313 h 8.80209 v 3.78907 h -13.81512 z"
         style="font-weight:bold;-inkscape-font-specification:'sans-serif Bold';text-align:center;text-anchor:middle"
         id="path55649" />
      <path
         d="m 191.17517,296.93834 h -7.83855 l -1.23698,3.54167 h -5.03907 l 7.20053,-19.44013 h 5.97657 l 7.20053,19.44013 h -5.03907 z m -6.58855,-3.60678 h 5.32553 l -2.65626,-7.73438 z"
         style="font-weight:bold;-inkscape-font-specification:'sans-serif Bold';text-align:center;text-anchor:middle"
         id="path55651" />
      <path
         d="m 209.43041,300.83157 h -0.39063 q -4.80469,0 -7.47397,-2.65625 -2.66927,-2.65625 -2.66927,-7.39584 0,-4.72657 2.65625,-7.40887 2.66928,-2.68229 7.34376,-2.68229 4.72657,0 7.35678,2.65625 2.64324,2.65626 2.64324,7.43491 0,3.28125 -1.40626,5.65105 -1.39323,2.36979 -4.02344,3.56771 l 3.91928,4.375 h -4.77865 z m -0.53386,-16.51043 q -2.29167,0 -3.55469,1.69271 -1.26302,1.69271 -1.26302,4.76563 0,3.125 1.23698,4.79167 1.23698,1.65365 3.58073,1.65365 2.30469,0 3.56772,-1.69271 1.26302,-1.69271 1.26302,-4.75261 0,-3.07292 -1.26302,-4.76563 -1.26303,-1.69271 -3.56772,-1.69271 z"
         style="font-weight:bold;-inkscape-font-specification:'sans-serif Bold';text-align:center;text-anchor:middle"
         id="path55653" />
      <path
         d="m 222.68563,281.03988 h 5.01303 v 11.65366 q 0,2.40886 0.78125,3.45053 0.79427,1.02864 2.57813,1.02864 1.79687,0 2.57812,-1.02864 0.79428,-1.04167 0.79428,-3.45053 v -11.65366 h 5.01302 v 11.65366 q 0,4.12761 -2.07031,6.14584 -2.07032,2.01823 -6.31511,2.01823 -4.23178,0 -6.30209,-2.01823 -2.07032,-2.01823 -2.07032,-6.14584 z"
         style="font-weight:bold;-inkscape-font-specification:'sans-serif Bold';text-align:center;text-anchor:middle"
         id="path55655" />
      <path
         d="m 244.3393,281.03988 h 5.01303 v 19.44013 h -5.01303 z"
         style="font-weight:bold;-inkscape-font-specification:'sans-serif Bold';text-align:center;text-anchor:middle"
         id="path55657" />
      <path
         d="m 254.53463,295.44094 h 4.68751 v 5.03907 h -4.68751 z"
         style="font-weight:bold;-inkscape-font-specification:'sans-serif Bold';text-align:center;text-anchor:middle"
         id="path55659" />
    </g>
  </g>
</svg>
