<?xml version="1.0" encoding="UTF-8" standalone="no"?>
<!-- Created with Inkscape (http://www.inkscape.org/) -->

<svg
   width="500"
   height="200"
   viewBox="0 0 132.29167 52.916664"
   version="1.1"
   id="svg5"
   inkscape:version="1.1 (c68e22c387, 2021-05-23)"
   sodipodi:docname="logo-CaoQri1.svg"
   xmlns:inkscape="http://www.inkscape.org/namespaces/inkscape"
   xmlns:sodipodi="http://sodipodi.sourceforge.net/DTD/sodipodi-0.dtd"
   xmlns="http://www.w3.org/2000/svg"
   xmlns:svg="http://www.w3.org/2000/svg">
  <sodipodi:namedview
     id="namedview7"
     pagecolor="#ffffff"
     bordercolor="#666666"
     borderopacity="1.0"
     inkscape:pageshadow="2"
     inkscape:pageopacity="0.0"
     inkscape:pagecheckerboard="0"
     inkscape:document-units="px"
     showgrid="false"
     units="px"
     height="200px"
     inkscape:zoom="0.92648709"
     inkscape:cx="226.12296"
     inkscape:cy="136.53725"
     inkscape:window-width="1366"
     inkscape:window-height="705"
     inkscape:window-x="-8"
     inkscape:window-y="-8"
     inkscape:window-maximized="1"
     inkscape:current-layer="layer1" />
  <defs
     id="defs2">
    <rect
       x="38.923851"
       y="23.659596"
       width="431.21522"
       height="128.98296"
       id="rect2779" />
  </defs>
  <g
     inkscape:label="Camada 1"
     inkscape:groupmode="layer"
     id="layer1"
     style="display:inline;opacity:1">
    <text
       xml:space="preserve"
       transform="scale(0.26458333)"
       id="text2777"
       style="font-style:normal;font-weight:normal;font-size:40px;line-height:1.25;font-family:sans-serif;white-space:pre;shape-inside:url(#rect2779);fill:#000000;fill-opacity:1;stroke:none" />
  </g>
  <g
     inkscape:groupmode="layer"
     id="layer2"
     inkscape:label="Camada 2"
     style="opacity:1">
    <ellipse
       style="opacity:0.41463415;fill:#96d2f9;fill-opacity:1;stroke:none;stroke-width:0.264583;stroke-opacity:0"
       id="path45449"
       cx="85.114922"
       cy="24.736839"
       rx="17.06337"
       ry="18.274971" />
    <ellipse
       style="opacity:1;fill:#ffffff;fill-opacity:1;stroke:none;stroke-width:0.264583;stroke-opacity:0"
       id="path47033"
       cx="84.332428"
       cy="24.080557"
       rx="3.7610097"
       ry="2.1707838" />
    <path
       style="opacity:1;fill:#ffe500;stroke:none;stroke-width:0.264583px;stroke-linecap:butt;stroke-linejoin:miter;stroke-opacity:1;fill-opacity:1"
       d="m 83.045101,27.00859 c 0,0 0.268771,3.577468 -0.252416,5.250267 -0.825079,2.64817 -4.392051,7.067669 -4.392051,7.067669 1.485098,3.324261 10.752952,1.918367 10.752952,1.918367 l 7.875402,-5.502686 c 0,0 -3.354764,-3.226377 -4.981663,-4.965774 -1.536724,-1.642987 -4.357755,-5.130894 -4.357755,-5.130894 z"
       id="path29586"
       sodipodi:nodetypes="cssccscc" />
    <path
       id="path40761"
       style="opacity:1;fill:#ff0000;fill-opacity:1;stroke:none;stroke-width:0.999999px;stroke-linecap:butt;stroke-linejoin:miter;stroke-opacity:1"
       d="M 321.32031 19.423828 C 320.71072 19.417447 320.09994 19.418246 319.48633 19.427734 C 282.50488 19.99961 250.96204 57.461237 251.48828 94.443359 C 252.25364 148.22913 298.97852 163.52148 298.97852 163.52148 C 298.97852 163.52148 290.59661 168.50842 288.72461 172.69531 C 287.62322 175.15866 288.22693 178.06097 289.80469 180.25 C 291.46779 182.55744 293.98507 183.26109 296.82031 183.48828 C 305.72314 184.20164 307.34405 177.66266 316.24805 178.36133 C 324.23929 178.98838 335.13497 185.40805 345.37109 189.20898 C 357.14611 193.58135 361.95974 195.6163 369.69531 195.16992 C 382.18473 194.44922 396.62027 190.69243 402.5957 181.33008 C 404.43456 178.44896 404.64338 173.81283 402.5957 171.07617 C 400.68598 168.52388 396.05862 166.58761 393.42188 168.37891 C 386.84319 172.84819 379.43567 177.98133 370.15039 178.13867 C 359.45484 178.3199 352.16759 174.21291 335.67578 166.48828 C 335.67578 166.48828 389.28812 148.17392 389.64453 98.220703 C 389.97725 51.589871 359.72482 19.825809 321.32031 19.423828 z M 320.37305 36.199219 A 52.456232 57.076899 0 0 1 372.83008 93.275391 A 52.456232 57.076899 0 0 1 320.37305 150.35352 A 52.456232 57.076899 0 0 1 267.91797 93.275391 A 52.456232 57.076899 0 0 1 320.37305 36.199219 z "
       transform="scale(0.26458333)" />
    <path
       style="fill:#ffc600;stroke:none;stroke-width:0.264583px;stroke-linecap:butt;stroke-linejoin:miter;stroke-opacity:1;opacity:1;fill-opacity:1"
       d="m 80.419968,6.6638013 c 0,0 -1.643437,-0.4644182 -2.574652,-0.2524165 -1.904399,0.4335586 -3.175573,1.9636215 -4.69495,3.306659 -0.508877,0.4498172 -1.631099,1.4151952 -2.271751,1.6407082 -2.500441,0.88017 -5.327916,1.477407 -6.285175,3.786251 -0.733985,1.770321 0.543391,3.947492 1.994091,5.199785 1.300668,1.122781 3.412723,1.088096 5.098817,0.75725 1.036505,-0.203384 1.884781,-0.976808 2.726102,-1.615467 0.872146,-0.662058 2.372717,-2.271751 2.372717,-2.271751 z"
       id="path37095"
       sodipodi:nodetypes="cssssssscc" />
    <path
       style="opacity:1;fill:#ffc600;fill-opacity:1;stroke:none;stroke-width:0.264583px;stroke-linecap:butt;stroke-linejoin:miter;stroke-opacity:1"
       d="m 85.569268,6.2599347 c 0,0 3.590591,0.6482939 5.502685,1.1106335 2.597532,0.628077 5.580287,0.9985963 7.774436,2.5241673 1.370611,0.9529695 2.559321,1.7665255 2.978511,3.3823835 0.50795,1.958023 0.49364,4.953544 -0.9087,6.411385 -1.23334,1.282149 -3.51585,1.355218 -5.250263,0.959184 C 94.633446,20.41193 93.932043,19.42946 93.098076,18.776682 91.347991,17.406822 87.99247,14.48872 87.99247,14.48872 Z"
       id="path37556"
       sodipodi:nodetypes="csssssscc" />
    <path
       style="opacity:1;fill:#ffffff;stroke:none;stroke-width:0.264583px;stroke-linecap:butt;stroke-linejoin:miter;stroke-opacity:1"
       d="m 74.74976,22.132211 18.348316,-3.355529 c 0,0 0.251501,-1.487621 1.713461,-1.749158 1.132086,-0.202525 1.836243,0.604289 2.141828,1.392187 0.196235,0.505958 -0.428366,1.570673 -0.428366,1.570673 0,0 1.429171,0.532781 1.427885,1.142308 -0.0019,0.880848 -1.189598,1.636907 -2.070433,1.642067 -0.932978,0.0055 -2.213221,-1.713461 -2.213221,-1.713461 l -18.407462,3.435584 c 0,0 -0.625542,1.764632 -1.511527,1.990378 -0.775216,0.197522 -1.840369,-0.220344 -2.213222,-0.928126 -0.328471,-0.623533 0.428364,-2.070432 0.428364,-2.070432 0,0 -1.646145,-0.0024 -1.856248,-0.99952 -0.170045,-0.807012 0.901465,-1.640467 1.71346,-1.784855 1.068854,-0.190063 2.927165,1.427884 2.927165,1.427884 z"
       id="path27578"
       sodipodi:nodetypes="ccsscssccsscssc" />
    <path
       style="opacity:1;fill:#e9d207;stroke:none;stroke-width:0.264583px;stroke-linecap:butt;stroke-linejoin:miter;stroke-opacity:1;fill-opacity:1"
       d="m 78.337319,23.917067 2.356009,0.214183 c 0,0 1.427231,1.869935 3.645436,1.662977 2.328388,-0.217237 3.279805,-2.394769 3.279805,-2.394769 l 1.909797,-0.464061 c 0,0 -0.282978,1.875588 -1.816819,3.214904 -0.74631,0.651662 -1.730956,1.234162 -3.234326,1.300781 -2.038594,0.09034 -3.33716,-0.561292 -4.297278,-1.328784 -1.255439,-1.003564 -1.842624,-2.205231 -1.842624,-2.205231 z"
       id="path25731"
       sodipodi:nodetypes="ccsccsssc" />
    <path
       id="path11866"
       style="opacity:1;fill:#ff0000;stroke-width:1.05239"
       d="M 212.49609 78.521484 A 32.785128 34.539066 0 0 0 179.71094 113.06055 A 32.785128 34.539066 0 0 0 212.49609 147.59961 A 32.785128 34.539066 0 0 0 245.28125 113.06055 A 32.785128 34.539066 0 0 0 212.49609 78.521484 z M 212.42969 93.902344 A 17.336992 19.09093 0 0 1 229.76562 112.99414 A 17.336992 19.09093 0 0 1 212.42969 132.08398 A 17.336992 19.09093 0 0 1 195.0918 112.99414 A 17.336992 19.09093 0 0 1 212.42969 93.902344 z "
       transform="scale(0.26458333)" />
    <path
       id="path12195"
       style="opacity:1;fill:#ff0000;stroke-width:0.278445"
       d="m 37.542133,20.85912 c -4.79074,5e-6 -8.674404,4.091426 -8.674404,9.138461 1e-6,5.047034 3.883665,9.138454 8.674404,9.138459 1.883746,2e-6 3.627248,-0.632575 5.049549,-1.707092 0.0729,-0.05508 0.0096,0.91718 0.960506,1.24574 0.584482,0.201958 1.223035,0.184901 1.696519,-0.05399 0.59885,-0.302147 0.965754,-0.937751 0.981104,-1.696683 0.04185,-2.069079 -0.01327,-5.140224 -0.01327,-6.926431 0,-1.854171 0.148676,-7.074308 0.04955,-7.705804 -0.07485,-0.501023 -0.361601,-0.866398 -0.735453,-1.100406 -0.730002,-0.456934 -1.649295,-0.404325 -2.257122,0.09997 -0.590246,0.489709 -0.699549,0.829987 -0.874671,1.133307 -1.385772,-0.988294 -3.057256,-1.565529 -4.856714,-1.565527 z m -0.01757,4.069519 c 2.533345,1.71e-4 4.586913,2.261734 4.586798,5.051371 -1.45e-4,2.789435 -2.053636,5.050682 -4.586798,5.050853 -2.533364,1.45e-4 -4.587172,-2.261195 -4.587317,-5.050853 -1.15e-4,-2.78986 2.053769,-5.051516 4.587317,-5.051371 z"
       sodipodi:nodetypes="cssssssscsscscccccc" />
    <path
       style="opacity:1;fill:#ff0000;stroke:none;stroke-width:0.264583px;stroke-linecap:butt;stroke-linejoin:miter;stroke-opacity:1"
       d="m 32.157889,19.183671 c 0.468745,0.30941 1.131349,0.424626 1.665952,0.252416 0.962769,-0.310134 1.190546,-1.870816 2.170784,-2.1203 1.440365,-0.366593 2.893083,0.706985 4.291084,1.2116 0.988947,0.356965 1.550989,0.683248 2.827068,0.6058 1.119484,-0.06794 2.204024,-0.753799 2.978518,-1.564983 0.795396,-0.833077 1.576277,-1.98364 1.464016,-3.129968 -0.06102,-0.623049 -0.517284,-1.314879 -1.110634,-1.5145 -0.615653,-0.207125 -1.40904,0.09554 -1.867884,0.555317 -0.550198,0.551312 -0.437631,1.090302 -0.807733,1.413534 -0.418066,0.365122 -1.061094,0.431516 -1.615467,0.403866 -1.392844,-0.06947 -2.579675,-1.096347 -3.937701,-1.413533 -1.006152,-0.235001 -2.072439,-0.584524 -3.079485,-0.353384 -1.010113,0.231844 -1.982624,0.852771 -2.625132,1.665951 -0.640047,0.810066 -1.124158,1.901992 -1.009669,2.928033 0.04609,0.413052 0.309419,0.831193 0.656283,1.060151 z"
       id="path14938"
       sodipodi:nodetypes="ssssssssssssssss" />
    <path
       style="opacity:1;fill:#ff0000;stroke:none;stroke-width:0.264583px;stroke-linecap:butt;stroke-linejoin:miter;stroke-opacity:1"
       d="m 28.129328,18.705288 c -0.561319,0.689597 -1.785338,1.131824 -2.570194,0.713943 -2.964186,-1.578222 -3.871568,-1.921123 -5.854326,-1.999039 -2.096158,-0.08237 -4.965155,0.490226 -6.758568,2.167367 -2.218473,2.074641 -3.0455248,5.605252 -2.379894,8.113403 0.348622,1.313635 0.85995,2.938675 2.025702,4.182778 1.279725,1.365734 3.274879,2.30169 4.977538,2.555329 2.519276,0.375288 5.907861,-0.585825 7.275606,-1.597724 0.769075,-0.568985 2.177542,-0.389127 2.85577,0.285578 0.64466,0.641312 0.712349,1.910027 0.285575,2.712979 C 26.797346,38.0773 20.440335,39.384415 17.919952,39.124039 14.340462,38.754249 11.35541,37.219212 9.2072305,34.710113 7.3609922,32.553684 6.1142452,29.640452 5.8543269,26.558652 5.590988,23.436294 6.6480261,20.194415 8.6488017,17.679029 c 2.0405493,-2.56539 4.8121033,-4.050248 7.7004773,-4.613885 3.323597,-0.648566 9.876996,0.356453 11.922836,3.498317 0.390441,0.599612 0.308914,1.586899 -0.142787,2.141827 z"
       id="path16370"
       sodipodi:nodetypes="sssssssssssssssss" />
    <path
       id="path19338"
       style="opacity:1;fill:#ff0000;stroke:none;stroke-width:0.999999px;stroke-linecap:butt;stroke-linejoin:miter;stroke-opacity:1"
       d="M 403.95117 48.457031 C 403.23019 48.46327 401.16955 48.644527 399.69922 50.384766 C 398.60365 51.681465 398.7793 53.806641 398.7793 53.806641 L 398.39648 141.19531 C 398.39648 141.19531 398.49315 147.96435 406.0293 148.0625 C 415.24507 148.18254 414.49414 140.35742 414.49414 140.35742 L 414.62891 109.36328 L 430.83398 109.52148 C 430.83398 109.52148 434.16048 109.3966 436.72852 110.71875 C 440.25289 112.5333 443.84291 115.49632 443.80859 119.82422 L 443.80859 140.43164 C 443.80859 140.43164 443.54009 147.27097 451.05859 147.68164 C 458.78478 148.10366 459.45313 140.33984 459.45312 140.33984 L 459.45312 122.11328 C 459.45312 122.11328 458.90964 116.77405 458.69141 114.09961 C 458.07716 106.57155 449.91406 102.65234 449.91406 102.65234 C 449.91406 102.65234 461.87391 94.317453 461.36133 79.375 C 460.47514 53.542122 438.84766 49.226562 438.84766 49.226562 L 404.21289 48.464844 C 404.21289 48.464844 404.11755 48.455592 403.95117 48.457031 z M 414.61523 64.681641 L 436.19922 64.90625 C 436.19922 64.90625 445.02114 64.787479 444.88281 80.765625 C 444.78878 91.639167 436.77539 92.931641 436.77539 92.931641 L 414.23438 93.111328 L 414.61523 64.681641 z "
       transform="scale(0.26458333)" />
    <path
       style="opacity:1;fill:#ff0000;stroke:none;stroke-width:0.264583px;stroke-linecap:butt;stroke-linejoin:miter;stroke-opacity:1"
       d="m 123.29783,21.703846 v 15.349758 c 0,0 0.033,1.788694 1.99904,1.784858 2.13593,-0.0042 2.14183,-1.642067 2.14183,-1.642067 l -0.0505,-15.555282 c 0,0 0.0425,-1.45582 -1.94856,-1.436546 -2.17141,0.02102 -2.14183,1.499279 -2.14183,1.499279 z"
       id="path22537"
       sodipodi:nodetypes="ccsccsc" />
    <path
       style="opacity:1;fill:#ff0000;stroke:none;stroke-width:0.264583px;stroke-linecap:butt;stroke-linejoin:miter;stroke-opacity:1"
       d="m 125.45418,12.855404 c -1.0544,0.0077 -2.13148,0.561326 -2.1203,2.347475 0.0105,1.67469 0.98718,2.353532 2.01933,2.347476 1.09882,-0.0064 2.17886,-0.675382 2.13814,-2.488469 -0.0346,-1.540964 -1.04894,-2.213732 -2.03717,-2.206482 z"
       id="path23199"
       sodipodi:nodetypes="sssss" />
    <path
       style="opacity:1;fill:#ffe500;stroke:none;stroke-width:0.264583px;stroke-linecap:butt;stroke-linejoin:miter;stroke-opacity:1;fill-opacity:1"
       d="m 78.729987,6.4433292 c 0.642989,-0.6429887 -1.669421,-1.1213789 -1.213702,-2.0704325 0.41526,-0.8647978 2.262709,0.4994624 2.516647,0.196334 0,0 -0.364662,-2.2651881 0.428366,-2.3560096 0.986021,-0.112924 1.34221,1.6185639 1.71346,1.7848557 0.472616,0.2116963 1.582772,-1.1702442 2.231069,-0.803185 0.540027,0.3057578 -0.08924,1.6599159 -0.08924,1.6599159 1.035333,0.2204553 2.976241,1.1946851 3.998077,2.3560094 1.077517,1.2246067 1.646748,2.8910379 1.927643,4.4978369 0.209367,1.197637 -0.415795,2.442138 -0.214183,3.641105 0.320262,1.904574 2.539772,1.472422 2.391707,4.997596 -0.07244,1.724551 -2.838665,2.831151 -4.533533,3.141346 -2.070306,0.378907 -4.497837,-1.213702 -4.497837,-1.213702 0,0 -1.802755,1.884537 -2.998558,1.999038 -1.592682,0.152503 -3.394602,-0.633466 -4.426442,-1.85625 -0.882325,-1.045602 -1.139099,-2.311098 -0.928124,-3.998076 0.15213,-1.216442 1.171136,-2.402162 1.171136,-2.402162 -0.597788,-1.570317 -0.650451,-3.745986 -0.171616,-5.522597 0.470838,-1.7469418 1.716779,-3.0732703 2.69513,-4.0516228 z"
       id="path23594"
       sodipodi:nodetypes="sssssssssssscssssss" />
    <circle
       style="opacity:1;fill:#ffffff;stroke:none;stroke-width:0.264583"
       id="path32246"
       cx="87.208061"
       cy="33.66238"
       r="1.6777644" />
    <ellipse
       style="opacity:1;fill:#000000;stroke:none;stroke-width:0.319619"
       id="path32463"
       cx="83.174271"
       cy="19.954687"
       rx="3.3555291"
       ry="2.3203123" />
    <ellipse
       style="opacity:1;fill:#ffffff;stroke:none;stroke-width:0.264583"
       id="path33466"
       cx="85.820885"
       cy="7.6097088"
       rx="1.1066105"
       ry="0.767488"
       transform="rotate(7.5813932)" />
    <ellipse
       style="opacity:1;fill:#241c1c;stroke:none;stroke-width:0.264583"
       id="path33780"
       cx="84.495071"
       cy="13.11869"
       rx="0.64254802"
       ry="1.1244591" />
    <ellipse
       style="opacity:1;fill:#241c1c;stroke:none;stroke-width:0.264583"
       id="ellipse33862"
       cx="81.960579"
       cy="13.190084"
       rx="0.64254802"
       ry="1.1244591" />
    <path
       style="opacity:1;fill:#000000;stroke:none;stroke-width:0.264583px;stroke-linecap:butt;stroke-linejoin:miter;stroke-opacity:1"
       d="m 80.76073,8.9607937 c -0.365782,0.1676054 -0.688852,0.405119 -0.946561,0.7193876 -0.241089,0.294001 -0.474655,0.6610097 -0.473282,1.0412187 6.05e-4,0.167486 0.0067,0.412634 0.17038,0.44804 0.177955,0.03849 0.23223,-0.169338 0.315522,-0.366005 0.123442,-0.291466 0.268682,-0.622191 0.479591,-0.8582167 0.213482,-0.238905 0.506377,-0.368654 0.757249,-0.5679371 C 81.201712,9.2675935 81.335368,9.1579893 81.20877,8.967104 81.12014,8.8334615 80.906516,8.893993 80.76073,8.9607937 Z"
       id="path33897"
       sodipodi:nodetypes="sssssssss" />
    <path
       style="opacity:1;fill:#000000;stroke:none;stroke-width:0.264583px;stroke-linecap:butt;stroke-linejoin:miter;stroke-opacity:1"
       d="M 85.728467,9.3757512 C 85.609322,8.9914436 85.415353,8.6404976 85.136857,8.3444928 84.876322,8.0675778 84.56766,7.7130042 84.190435,7.6654429 c -0.166171,-0.020951 -0.435308,0.029274 -0.491481,0.1870378 -0.06107,0.171523 0.138049,0.2520887 0.322363,0.3599942 0.27316,0.1599198 0.506722,0.3591287 0.713647,0.5986547 0.209449,0.2424481 0.300432,0.5496035 0.465778,0.8240325 0.09101,0.151049 0.333953,0.3986639 0.539541,0.2976801 0.143936,-0.070697 0.03567,-0.4039214 -0.01181,-0.557091 z"
       id="path34691"
       sodipodi:nodetypes="ssssssssss" />
    <path
       style="opacity:1;fill:#51b4f7;stroke:none;stroke-width:0.264583px;stroke-linecap:butt;stroke-linejoin:miter;stroke-opacity:1;fill-opacity:1"
       d="m 81.732535,31.249189 c -0.0526,0.07615 -0.05048,0.201934 -0.05048,0.201934 l 0,1.665951 c 0,0 -0.07513,0.297941 0.08835,0.416486 0.120645,0.08749 0.336603,0.05039 0.336603,0.05039 l 9.551962,-3.122755 c 0,0 0.215039,-0.08927 0.283827,-0.25953 0.06079,-0.150466 0.01201,-0.341923 0.01201,-0.341923 l -0.929576,-1.755866 c 0,0 -0.109616,-0.20739 -0.246704,-0.259154 -0.128933,-0.04869 -0.345674,0.01698 -0.345674,0.01698 l -8.430337,3.190488 c 0,0 -0.205058,0.10303 -0.269971,0.197001 z"
       id="path31327"
       sodipodi:nodetypes="sccsccsccsccs" />
    <path
       style="fill:#fea800;fill-opacity:1;stroke:none;stroke-width:0.264583px;stroke-linecap:butt;stroke-linejoin:miter;stroke-opacity:1"
       d="m 90.632388,8.0625489 c 0.854918,0.099292 1.632317,0.041737 2.740378,0.4390674 1.69139,0.6065012 4.02348,1.124523 5.387441,2.0346157 1.279943,0.854033 2.225433,1.961485 2.675613,3.432868 0.49613,1.621564 -0.29032,4.689224 -0.74965,5.003105 -0.39785,0.27187 0.87389,-3.385541 -0.764844,-5.810839 -0.793859,-1.174895 -0.932804,-1.182363 -2.09506,-2.1203 C 96.097217,9.6457283 94.906426,9.7959259 93.030348,8.9460072 92.639554,8.768966 90.632388,8.0625489 90.632388,8.0625489 Z"
       id="path47631"
       sodipodi:nodetypes="csssssssc" />
  </g>
</svg>
